<?xml version="1.0" encoding="UTF-8"?>
<!-- Created with Inkscape (http://www.inkscape.org/) -->
<svg width="178.72" height="171.17" version="1.1" viewBox="0 0 178.72 171.17" xml:space="preserve" xmlns="http://www.w3.org/2000/svg"><g transform="matrix(1.3333 0 0 -1.3333 -315.11 752.25)"><rect transform="scale(1,-1)" x="235.86" y="-564.71" width="135.72" height="130.26" stroke-width="0"/><g transform="translate(352.09 538.32)"><path d="m0 0h-64.887v-4.238h63.924v-56.181h-95.54v71.288h-4.25v-81.79c0-1.819 1.468-3.286 3.286-3.286h97.467c1.818 0 3.286 1.467 3.286 3.286v67.635c0 1.818-1.468 3.286-3.286 3.286" fill="#00cfff"/></g><path d="m322.73 497.36h-19.581v-4.247h19.581z" fill="#03ff1b"/><g transform="translate(285.48 493.73)"><path d="m0 0 14.013 14.013-14.013 14.012-3.002-3.002 11.01-11.01-11.01-11.01z" fill="#00cfff"/></g><g transform="translate(287.78 457.89)"><path d="m0 0-2.124-7.078h37.511l-2.123 7.078z" fill="#03ff1b"/></g><g transform="translate(260.03 547.59)"><path d="M 0,0 21.949,-11.681 0,-23.363 Z" fill="#03ff1b"/></g></g></svg>
