<?xml version="1.0" encoding="UTF-8"?>
<!-- Created with Inkscape (http://www.inkscape.org/) -->
<svg width="713.11" height="181.17" version="1.1" viewBox="0 0 713.11 181.17" xml:space="preserve" xmlns="http://www.w3.org/2000/svg"><defs><clipPath id="clipPath22"><path d="m0 1e3h1e3v-1e3h-1e3z"/></clipPath></defs><g transform="matrix(1.3333 0 0 -1.3333 -310.11 757.25)"><g transform="translate(415.1 477.37)"><path d="m0 0h-3.534v30.452l3.534 4.893zm-36.501 30.452v-30.452h-3.535v35.345zm36.501 11.011-19.304-27.461h-1.36l-19.372 27.461v4.079h1.36l18.624-26.713 18.693 26.713h1.359z" fill="#00cfff"/></g><g clip-path="url(#clipPath22)"><g transform="translate(455.65 505.95)"><path d="m0 0c3.286-3.286 4.928-7.353 4.928-12.2 0-3.853-1.178-7.205-3.534-10.061v10.061c0 3.942-1.292 7.25-3.875 9.924-2.583 2.673-5.8 4.009-9.652 4.009-3.716 0-7.001-1.268-9.856-3.806v3.739c2.765 2.174 6.072 3.263 9.925 3.263 4.757 0 8.779-1.643 12.064-4.929m-25.523-12.133c0-3.942 1.291-7.25 3.874-9.924 2.583-2.673 5.8-4.009 9.652-4.009 3.716 0 7.001 1.268 9.856 3.805v-3.738c-2.764-2.175-6.049-3.263-9.856-3.263-4.757 0-8.791 1.643-12.099 4.929-3.308 3.285-4.962 7.352-4.962 12.2 0 3.898 1.179 7.273 3.535 10.128z" fill="#00cfff"/></g><g transform="translate(494.63 507.34)"><path d="m0 0c2.13-2.356 3.195-5.437 3.195-9.244v-20.731h-3.399v20.528c0 2.945-0.826 5.313-2.481 7.103-1.653 1.789-3.885 2.684-6.695 2.684-2.266 0-4.35-0.567-6.253-1.699v3.127c1.948 1.178 4.237 1.768 6.865 1.768 3.716 0 6.639-1.179 8.768-3.536m-19.167-29.975h-3.398v32.83h3.398z" fill="#00cfff"/></g><g transform="translate(516.11 486.68)"><path d="m0 0c0-4.576 2.38-6.865 7.138-6.865 1.313 0 2.833 0.18 4.553 0.543v-2.991c-1.72-0.452-3.42-0.679-5.097-0.679-3.082 0-5.528 0.793-7.341 2.379-1.813 1.587-2.719 4.079-2.719 7.477v17.06h3.466zm0 23.518h10.604v-3.127h-19.78v3.127h5.71v9.312h3.466z" fill="#00cfff"/></g><g transform="translate(549.42 510.06)"><path d="m0 0c0.543-0.544 0.816-1.224 0.816-2.04 0-0.77-0.273-1.439-0.816-2.004-0.544-0.567-1.201-0.851-1.972-0.851-0.815 0-1.495 0.284-2.039 0.851-0.543 0.565-0.815 1.234-0.815 2.004 0 0.816 0.272 1.496 0.815 2.04 0.544 0.543 1.224 0.815 2.039 0.815 0.771 0 1.428-0.272 1.972-0.815m-8.633-32.695h-3.397v32.83h3.397z" fill="#00cfff"/></g><g transform="translate(573.96 515.7)"><path d="m0 0h-2.719l6.186 14.682h4.214v-0.612zm9.72-19.644c0.136 3.535-0.907 6.367-3.127 8.497-2.221 2.129-4.94 3.194-8.156 3.194-3.67 0-6.741-1.337-9.21-4.01-2.47-2.674-3.706-5.982-3.706-9.924 0-4.032 1.281-7.363 3.841-9.991 2.561-2.629 5.789-3.943 9.687-3.943 4.35 0 7.997 1.722 10.943 5.166l2.175-2.244c-3.489-4.078-7.885-6.117-13.187-6.117-4.758 0-8.779 1.642-12.064 4.929-3.285 3.285-4.929 7.329-4.929 12.132 0 4.758 1.609 8.803 4.826 12.133 3.217 3.331 7.137 4.996 11.759 4.996 4.124 0 7.603-1.348 10.434-4.044 2.833-2.697 4.248-6.22 4.248-10.57 0-1.45-0.09-2.537-0.272-3.263h-23.79v3.059z" fill="#00cfff"/></g><g transform="translate(633.71 477.37)"><path d="m0 0h-3.534v22.635h-24.063v3.194h24.063v19.032h3.534zm-31.131 0h-3.534v44.861h3.534z" fill="#03ff1b"/></g><g transform="translate(667.67 507.54)"><path d="m0 0c2.243-2.22 3.365-5.415 3.365-9.583v-20.596h-3.467v20.731c0 3.127-0.815 5.506-2.446 7.137-1.632 1.631-3.829 2.447-6.594 2.447-3.806 0-7.137-1.835-9.992-5.505l-2.379 1.903c3.172 4.532 7.365 6.798 12.575 6.798 3.716 0 6.695-1.111 8.938-3.332m-3.567-16.109h-7.681c-2.629 0-4.646-0.487-6.051-1.462-1.403-0.974-2.106-2.389-2.106-4.248 0-1.994 0.793-3.5 2.38-4.519 1.585-1.02 3.511-1.53 5.777-1.53 2.627 0 5.188 0.771 7.681 2.311v-2.99c-2.403-1.541-5.144-2.312-8.225-2.312-3.127 0-5.767 0.782-7.919 2.345-2.152 1.564-3.229 3.75-3.229 6.559 0 2.673 1.043 4.804 3.127 6.389 2.084 1.587 4.872 2.38 8.361 2.38h7.885z" fill="#03ff1b"/></g><g transform="translate(698.97 507.68)"><path d="m0 0c-3.67 0-6.978-1.269-9.923-3.806v3.739c2.764 2.174 6.071 3.262 9.923 3.262 5.528 0 9.946-2.243 13.254-6.729l-2.446-1.971c-2.81 3.67-6.412 5.505-10.808 5.505m-12.064-26.066c-3.286 3.285-4.929 7.351-4.929 12.2 0 3.897 1.179 7.273 3.534 10.128v-10.128c0-3.943 1.293-7.25 3.875-9.924 2.583-2.674 5.8-4.01 9.652-4.01 4.305 0 7.885 1.835 10.74 5.505l2.446-1.971c-3.308-4.486-7.726-6.729-13.254-6.729-4.759 0-8.779 1.642-12.064 4.929" fill="#03ff1b"/></g><g transform="translate(748.66 477.37)"><path d="m0 0h-4.282l-14.75 18.353 13.118 14.477h4.418l-13.39-14.546zm-25.285 50.979h3.398v-50.979h-3.398z" fill="#03ff1b"/></g><g transform="translate(352.09 538.32)"><path d="m0 0h-64.887v-4.238h63.924v-56.181h-95.54v71.288h-4.25v-81.79c0-1.819 1.468-3.286 3.286-3.286h97.467c1.818 0 3.286 1.467 3.286 3.286v67.635c0 1.818-1.468 3.286-3.286 3.286" fill="#00cfff"/></g><path d="m322.73 497.36h-19.581v-4.247h19.581z" fill="#03ff1b"/><g transform="translate(285.48 493.73)"><path d="m0 0 14.013 14.013-14.013 14.012-3.002-3.002 11.01-11.01-11.01-11.01z" fill="#00cfff"/></g><g transform="translate(287.78 457.89)"><path d="m0 0-2.124-7.078h37.511l-2.123 7.078z" fill="#03ff1b"/></g><g transform="translate(260.03 547.59)"><path d="M 0,0 21.949,-11.681 0,-23.363 Z" fill="#03ff1b"/></g></g></g></svg>
